<svg xmlns="http://www.w3.org/2000/svg" width="49" height="43"><g fill="none" fill-rule="evenodd"><path fill="#F7D321" d="M22.648 27.27L9.571 21.715l.033-16.587 13.077 5.555z"/><path fill="#4E4F50" d="M20.482 14.654a.216.216 0 01.026-.137l2.17-3.835-1.455-.618-2.168 3.833a.21.21 0 00-.026.137l.036.262c.033.237.144.489.297.7.153.213.348.388.548.474.2.085.368.065.478-.035.11-.101.163-.282.13-.52l-.036-.26zM8.857 9.695a.207.207 0 01.026-.138l2.16-3.818-1.439-.61v-.028L9.601 5.1 7.429 8.937a.211.211 0 00-.026.137l.036.262c.033.237.144.488.298.7.153.214.348.389.547.473.2.086.369.066.479-.034.11-.1.162-.281.13-.519l-.036-.261z"/><path fill="#F7D321" d="M10.31 10.314a.204.204 0 01.026-.137l2.161-3.82-1.454-.618-1.868 3.3-.292.518a.207.207 0 00-.026.138l.036.261c.032.237.143.488.297.701.153.213.348.388.548.473.2.084.368.065.478-.035.11-.1.162-.282.13-.52l-.036-.261"/><path fill="#4E4F50" d="M11.763 10.934a.204.204 0 01.026-.137l2.162-3.822-1.454-.618-2.161 3.82a.205.205 0 00-.026.137l.036.262c.032.237.144.488.297.7.153.213.348.388.548.473.2.086.368.067.478-.034.11-.1.163-.281.13-.519l-.036-.262"/><path fill="#F7D321" d="M13.216 11.555a.213.213 0 01.026-.138l2.163-3.824-1.454-.618-1.87 3.305-.292.517a.211.211 0 00-.026.137l.036.262c.032.237.144.488.297.7.153.214.348.388.548.473.2.086.368.066.478-.034.11-.1.163-.282.13-.52l-.036-.26"/><path fill="#4E4F50" d="M14.67 12.174a.21.21 0 01.025-.137l2.165-3.826-1.454-.618-2.164 3.824a.212.212 0 00-.026.138l.036.26c.033.238.144.49.297.701.153.214.349.389.548.474.2.084.368.065.479-.035.11-.1.162-.282.13-.52l-.036-.261"/><path fill="#F7D321" d="M16.86 8.211l-1.872 3.308-.293.518a.211.211 0 00-.026.137l.036.262c.033.237.144.488.297.7.154.213.349.388.549.474.2.085.368.065.478-.035.11-.1.162-.281.13-.52l-.037-.26a.213.213 0 01.027-.138l.292-.518 1.873-3.31-1.454-.618z"/><path fill="#4E4F50" d="M17.576 13.414a.205.205 0 01.026-.137l2.167-3.83-1.455-.619-2.165 3.829a.212.212 0 00-.027.137l.036.262c.033.238.145.488.298.7.153.214.348.388.547.473.2.086.369.066.48-.034.11-.1.161-.282.129-.519l-.036-.262"/><path fill="#F7D321" d="M19.03 14.033a.196.196 0 01.025-.136l2.168-3.833-1.454-.618-1.874 3.313-.293.518a.206.206 0 00-.026.138l.036.261c.032.237.144.488.297.701.153.213.348.387.548.473.2.084.368.065.478-.035.11-.1.163-.282.13-.52l-.036-.261"/><path fill="#4E4F50" d="M6.154 34.829c-1.122-.002-2.193 2.277-2.193 2.277l-.602 3.401s.561.164.977.164c.47.001 1.05-.18 1.43-.667.599-.741 1.036-2.731 1.038-3.89 0-.633-.07-1.284-.65-1.285m1.964 6.481c-.707.759-1.884 1.336-3.82 1.334-2.353-.003-4.234-.73-4.234-.73l2.207-12.483 3.058.004-.875 4.903s.834-1.646 2.735-1.643c1.176.001 2.659.474 2.655 3.333-.004 2.715-1.056 4.559-1.726 5.282m10.42 1.173l-2.262-.004-.25-1.593s-1.053 1.772-3.098 1.77c-1.81-.003-2.821-.981-2.42-3.261l1.149-6.513 3.058.004-1.094 6.206c-.092.56-.147 1.176.432 1.177 1.34.001 2.23-2.35 2.23-2.35l.893-5.03 3.058.005-1.696 9.588zm8.909-5.128l1.767 5.142-3.294.177-1.513-5.522 2.684-4.249 3.457.005-3.1 4.447zm-4.115 5.134l-3.058-.004 2.317-13.026 3.058.004-2.317 13.026z"/><path fill="#4E4F50" d="M34.743 34.759c-1.61-.002-2.266 2.73-2.268 4.105-.002 1.357.36 1.774 1.102 1.775 1.7.002 2.32-2.874 2.322-4.285.002-1.23-.396-1.593-1.156-1.595m2.38 6.627c-.834.831-2.03 1.3-3.766 1.298-1.882-.003-3.944-.802-3.94-3.788.003-2.298 1-4.016 1.744-4.775.815-.813 1.956-1.39 3.802-1.388 1.9.003 3.962.784 3.958 3.77-.003 2.117-.82 3.907-1.799 4.883m4.884 1.129l-3.058-.005 2.316-13.025 3.058.004zm5.28-10.724c-.96-.001-1.682-.78-1.68-1.703 0-.923.726-1.719 1.685-1.717.959.001 1.682.798 1.68 1.721 0 .923-.726 1.7-1.685 1.699zm-.521 10.73l-3.058-.004 1.695-9.589 3.059.005-1.696 9.588z"/><path fill="#90918F" d="M17.597 13.286a.205.205 0 00-.022.069l1.453.62a.21.21 0 01.022-.07l-1.453-.619zm-2.907-1.24a.246.246 0 00-.021.07l1.453.619a.192.192 0 01.022-.069l-1.454-.62zm-2.906-1.24a.212.212 0 00-.022.07l1.454.619a.19.19 0 01.021-.069l-1.453-.62zm-2.906-1.24a.204.204 0 00-.022.07l1.453.62a.197.197 0 01.022-.07l-1.453-.62z"/><path fill="#90918F" d="M20.482 14.595a.212.212 0 01.021-.069l-1.453-.62a.22.22 0 00-.022.07m-2.884-1.31a.192.192 0 00-.022.069l1.453.62a.205.205 0 01.022-.069l-1.453-.62zm-2.907-1.24a.22.22 0 00-.021.069l1.453.62a.234.234 0 01.021-.07l-1.453-.619zm-2.907-1.24a.246.246 0 00-.021.07l1.453.62a.191.191 0 01.022-.07l-1.453-.62zm-2.905-1.24a.179.179 0 00-.022.07l1.453.62a.204.204 0 01.022-.07l-1.453-.62z"/><path fill="#A87A31" d="M16.464 24.643l-3.647-1.594.016-7.851 3.647 1.373zm6.217-13.959l-.033 16.586 13.099-5.494.033-16.596z"/><path fill="#F7D321" d="M26.832 5.989l-4.145 4.69L35.78 5.18 40.224.046zM22.648 27.27L9.571 21.715l.033-16.587 13.077 5.555z"/><path fill="#4E4F50" d="M20.482 14.654a.216.216 0 01.026-.137l2.17-3.835-1.455-.618-2.168 3.833a.21.21 0 00-.026.137l.036.262c.033.237.144.489.297.7.153.213.348.388.548.474.2.085.368.065.478-.035.11-.101.163-.282.13-.52l-.036-.26zM8.857 9.695a.207.207 0 01.026-.138l2.16-3.818-1.439-.61v-.028L9.601 5.1 7.429 8.937a.211.211 0 00-.026.137l.036.262c.033.237.144.488.298.7.153.214.348.389.547.473.2.086.369.066.479-.034.11-.1.162-.281.13-.519l-.036-.261z"/><path fill="#F7D321" d="M10.31 10.314a.204.204 0 01.026-.137l2.161-3.82-1.454-.618-1.868 3.3-.292.518a.207.207 0 00-.026.138l.036.261c.032.237.143.488.297.701.153.213.348.388.548.473.2.084.368.065.478-.035.11-.1.162-.282.13-.52l-.036-.261"/><path fill="#4E4F50" d="M11.763 10.934a.204.204 0 01.026-.137l2.162-3.822-1.454-.618-2.161 3.82a.205.205 0 00-.026.137l.036.262c.032.237.144.488.297.7.153.213.348.388.548.473.2.086.368.067.478-.034.11-.1.163-.281.13-.519l-.036-.262"/><path fill="#F7D321" d="M13.216 11.555a.213.213 0 01.026-.138l2.163-3.824-1.454-.618-1.87 3.305-.292.517a.211.211 0 00-.026.137l.036.262c.032.237.144.488.297.7.153.214.348.388.548.473.2.086.368.066.478-.034.11-.1.163-.282.13-.52l-.036-.26"/><path fill="#4E4F50" d="M14.67 12.174a.21.21 0 01.025-.137l2.165-3.826-1.454-.618-2.164 3.824a.212.212 0 00-.026.138l.036.26c.033.238.144.49.297.701.153.214.349.389.548.474.2.084.368.065.479-.035.11-.1.162-.282.13-.52l-.036-.261"/><path fill="#F7D321" d="M16.86 8.211l-1.872 3.308-.293.518a.211.211 0 00-.026.137l.036.262c.033.237.144.488.297.7.154.213.349.388.549.474.2.085.368.065.478-.035.11-.1.162-.281.13-.52l-.037-.26a.213.213 0 01.027-.138l.292-.518 1.873-3.31-1.454-.618z"/><path fill="#4E4F50" d="M17.576 13.414a.205.205 0 01.026-.137l2.167-3.83-1.455-.619-2.165 3.829a.212.212 0 00-.027.137l.036.262c.033.238.145.488.298.7.153.214.348.388.547.473.2.086.369.066.48-.034.11-.1.161-.282.129-.519l-.036-.262"/><path fill="#F7D321" d="M19.03 14.033a.196.196 0 01.025-.136l2.168-3.833-1.454-.618-1.874 3.313-.293.518a.206.206 0 00-.026.138l.036.261c.032.237.144.488.297.701.153.213.348.387.548.473.2.084.368.065.478-.035.11-.1.163-.282.13-.52l-.036-.261"/><path fill="#90918F" d="M17.597 13.286a.205.205 0 00-.022.069l1.453.62a.21.21 0 01.022-.07l-1.453-.619zm-2.907-1.24a.246.246 0 00-.021.07l1.453.619a.192.192 0 01.022-.069l-1.454-.62zm-2.906-1.24a.212.212 0 00-.022.07l1.454.619a.19.19 0 01.021-.069l-1.453-.62zm-2.906-1.24a.204.204 0 00-.022.07l1.453.62a.197.197 0 01.022-.07l-1.453-.62z"/><path fill="#90918F" d="M20.482 14.595a.212.212 0 01.021-.069l-1.453-.62a.22.22 0 00-.022.07m-2.884-1.31a.192.192 0 00-.022.069l1.453.62a.205.205 0 01.022-.069l-1.453-.62zm-2.907-1.24a.22.22 0 00-.021.069l1.453.62a.234.234 0 01.021-.07l-1.453-.619zm-2.907-1.24a.246.246 0 00-.021.07l1.453.62a.191.191 0 01.022-.07l-1.453-.62zm-2.905-1.24a.179.179 0 00-.022.07l1.453.62a.204.204 0 01.022-.07l-1.453-.62z"/><path fill="#A87A31" d="M16.464 24.643l-3.647-1.594.016-7.851 3.647 1.373zm6.217-13.959l-.033 16.586 13.099-5.494.033-16.596z"/><path fill="#F7D321" d="M26.832 5.989l-4.145 4.69.002.001 13.091-5.5L40.224.046z"/></g></svg>